# xmcd
#
# Track frame offsets: 
#        150
#        16679
#        38944
#        57470
#        79146
#        100475
#        117878
#        138142
#        157100
#        174604
#        189365
#        206780
#
# Disc length: 2978 seconds
#
# Revision: 0
# Processed by: cddbd v1.5.2PL0 Copyright (c) Steve Scherf et al.
# Submitted via: ExactAudioCopy v0.99pb4
#
DISCID=a10ba00c
DTITLE=The Staple Singers - Be Altitude: Respect Yourself (2011 remast
DTITLE=er)
DYEAR=1972
DGENRE=Soul
TTITLE0=This World
TTITLE1=Respect Yourself
TTITLE2=Name The Missing Word
TTITLE3=I'll Take You There
TTITLE4=This Old Town (People In This Town )
TTITLE5=We The People
TTITLE6=Are You Sure
TTITLE7=Who Do You Think You Are? (Jesus Christ Superstar)
TTITLE8=I'm Just Another Soldier
TTITLE9=Who
TTITLE10=Walking In Water Over Our Head (bonus)
TTITLE11=Heavy Makes You Happy (bonus)
EXTD=
EXTT0=
EXTT1=
EXTT2=
EXTT3=
EXTT4=
EXTT5=
EXTT6=
EXTT7=
EXTT8=
EXTT9=
EXTT10=
EXTT11=
PLAYORDER=
